<?xml version="1.0" encoding="utf-8"?>
<!-- Generator: Adobe Illustrator 24.1.2, SVG Export Plug-In . SVG Version: 6.00 Build 0)  -->
<svg version="1.1" id="Layer_1" xmlns="http://www.w3.org/2000/svg" xmlns:xlink="http://www.w3.org/1999/xlink" x="0px" y="0px"
	 viewBox="0 0 320 418" style="enable-background:new 0 0 320 418;" xml:space="preserve">
<style type="text/css">
	.st0{fill:#010101;}
	.st1{fill:#E5E7EF;}
</style>
<path class="st0" d="M317.3,21.3c0-11.3-6.4-17.7-17.6-17.7c-93.1,0-186.3,0-279.4,0C9.4,3.6,3,10,2.8,21
	c-0.1,8.3-0.1,16.6-0.1,24.9c0,113,0,226,0,339c0,3,0,5.9,1.9,8.5c3.9,5.6,7.5,11.4,11.3,17c3.6,5.3,6.7,5.4,10.3,0.2
	c3.5-5,6.9-10.1,10.5-15.4c3.6,5.4,6.8,10.5,10.2,15.4c3.6,5.2,6.6,5.2,10.3-0.1c3.5-5,6.8-10,10.4-15.3c3.7,5.4,6.9,10.5,10.3,15.4
	c3.4,4.9,6.5,5.1,10,0.1s6.8-10.1,10.5-15.6c3.7,5.6,6.9,10.7,10.3,15.6c3.4,4.9,6.6,4.9,10-0.1c2.9-4.2,5.8-8.5,8.5-12.9
	c1.5-2.4,2.3-2.1,3.7,0.1c2.5,3.9,5.2,7.7,7.8,11.6c4.6,6.8,7.3,6.8,11.7,0.1c2.5-3.7,5.1-7.4,7.4-11.2c1.5-2.5,2.4-3.2,4.2-0.2
	c2.6,4.4,5.6,8.6,8.6,12.8c3.4,4.7,6.4,4.7,9.7,0c3-4.4,6-8.8,8.8-13.3c1.3-2.1,2.1-2,3.4,0c2.9,4.5,5.8,8.9,8.9,13.2
	c3.5,4.9,6.6,4.8,10-0.2c2.7-4,5.6-7.9,7.9-12.1c2-3.6,3.1-2.6,4.8,0.2c2.5,4.1,5.3,8,8.1,12c3.5,4.9,6.6,4.9,10.1,0
	c3-4.4,5.9-8.8,8.8-13.3c1.2-1.9,1.9-1.8,3.1,0c3,4.6,6,9.2,9.2,13.6c3.3,4.6,6,4.6,9.3,0c3.1-4.3,6.1-8.7,8.9-13.2
	c1.4-2.2,2.2-2.5,3.7-0.1c2.8,4.5,5.8,8.9,8.9,13.2c3.3,4.6,6.1,4.7,9.3,0.1c4.2-6,8.1-12.1,12.2-18.2c1.1-1.7,1.6-3.7,1.4-5.7
	C317.3,265.2,317.3,143.3,317.3,21.3z M308.5,392.2c-3.2,4.6-6.2,9.4-9.6,14.6c-3.8-5.6-7.2-10.9-10.8-16.1c-3.1-4.5-6.2-4.5-9.3,0
	c-3.6,5.2-7,10.5-10.8,16.1c-3.7-5.5-7.2-10.9-10.8-16.1c-3.1-4.5-6.2-4.5-9.3,0c-3.6,5.2-7,10.5-10.8,16.1c-3.3-5-6.4-9.8-9.6-14.6
	c-4.4-6.6-7.2-6.6-11.7,0.1c-3.1,4.5-6.1,9.1-9.1,13.7c-0.2,0.2-0.4,0.4-0.7,0.6c-3.4-5.2-6.8-10.5-10.2-15.6c-3.3-4.9-6.6-4.9-10,0
	c-3.4,4.9-6.8,10.2-10.6,15.8c-3.5-5.4-6.9-10.6-10.3-15.7c-3.3-5-6.6-5-10-0.1c-3.6,5.2-7,10.4-10.6,15.8c-3.4-5.1-6.5-10-9.7-14.9
	c-4.1-6.1-7.1-6.2-11.1-0.2c-3.2,4.8-6.3,9.7-9.8,15c-3.5-5.3-6.8-10.2-10.1-15c-4.1-6-7-6-11.1,0.2c-3.2,4.8-6.3,9.7-9.7,14.9
	c-3.8-5.6-7.2-10.9-10.7-16c-3.2-4.6-6.5-4.5-9.7,0.1C59,396,55.8,401,52.1,406.8C48.4,401.3,45,396,41.5,391
	c-3.4-4.9-6.6-4.9-10,0.1s-6.7,10.2-10.3,15.7c-3.8-5.8-7.3-11.2-10.9-16.5c-1.1-1.5-1-3.1-1-4.8c0-121.2,0-242.3,0-363.4
	c0-9,2.9-11.8,12-11.8h277c9.5,0,12.3,2.8,12.3,12.6c0,120.8,0,241.6,0,362.5C310.8,387.7,310,390.2,308.5,392.2L308.5,392.2z"/>
<g>
	<path class="st1" d="M37.6,27.5h243.3c8.3,0,15.1,6.7,15.1,15.1v243.3c0,8.3-6.7,15.1-15.1,15.1H37.6c-8.3,0-15.1-6.7-15.1-15.1
		V42.5C22.5,34.2,29.3,27.5,37.6,27.5z"/>
	<path d="M126.8,67.7H62.7v64.1h64.1V67.7L126.8,67.7z M111.7,116.7H77.8v-34h33.9V116.7z"/>
	<rect x="87.2" y="92.2" width="15.1" height="15.1"/>
	<path d="M255.7,67.7h-64.1v64.1h64.1V67.7z M240.7,116.7h-34v-34h34V116.7z"/>
	<rect x="216.1" y="92.2" width="15.1" height="15.1"/>
	<path d="M126.8,196.6H62.7v64.1h64.1V196.6L126.8,196.6z M111.7,245.6H77.8v-33.9h33.9V245.6z"/>
	<rect x="87.2" y="221.1" width="15.1" height="15.1"/>
	<rect x="77.8" y="141.9" width="15.1" height="15.1"/>
	<polygon points="107.6,172.1 107.6,187.1 122.6,187.1 122.6,172.1 107.9,172.1 107.9,157 92.9,157 92.9,172.1 	"/>
	<rect x="168.3" y="96.7" width="15.1" height="15.1"/>
	<rect x="138.1" y="82.7" width="15.1" height="29"/>
	<rect x="153.2" y="67.7" width="15.1" height="15.1"/>
	<polygon points="168.3,111.8 153.2,111.8 153.2,126.8 138.1,126.8 138.1,141.9 168.3,141.9 	"/>
	<polygon points="153.2,187.1 153.2,201.9 168.3,201.9 168.3,216.6 198.4,216.6 198.4,201.5 168.3,201.5 168.3,186.8 153.2,186.8 
		153.2,157 138.1,157 138.1,187.1 	"/>
	<rect x="168.3" y="141.9" width="15.1" height="30.2"/>
	<path d="M213.5,186.8h42.2v-30.2h-15v-14.7h-27.5V157h-14.7v15.1h15.1v14.7L213.5,186.8L213.5,186.8z M213.5,157h27.2v14.7h-27.1
		L213.5,157L213.5,157z"/>
	<rect x="240.7" y="201.5" width="15.1" height="30.2"/>
	<rect x="183.3" y="172.1" width="15.1" height="15.1"/>
	<rect x="198.4" y="216.6" width="15.1" height="15.1"/>
	<rect x="213.5" y="201.5" width="15.1" height="15.1"/>
	<polygon points="228.6,260.7 228.6,246.6 240.7,246.6 240.7,231.6 213.5,231.6 213.5,260.7 	"/>
	<rect x="138.1" y="201.9" width="15.1" height="28.7"/>
	<polygon points="168.3,260.7 168.3,245.6 183,245.6 183,260.7 198.1,260.7 198.1,245.6 183.3,245.6 183.3,230.5 153.2,230.5 
		153.2,260.7 	"/>
	<rect x="107.9" y="141.9" width="30.2" height="15.1"/>
</g>
<g>
	<path d="M86.8,362.6c-3.3,0-5.8-0.9-7.6-2.6s-2.7-4.3-2.7-7.6h6.6c0,1.6,0.3,2.8,1,3.6c0.6,0.8,1.5,1.2,2.7,1.2
		c1,0,1.7-0.3,2.3-0.9c0.6-0.6,0.8-1.3,0.8-2.3c0-0.9-0.3-1.7-0.8-2.3c-0.5-0.6-1.3-1.2-2.4-1.8l-3.8-1.8c-2.1-1-3.6-2.2-4.6-3.6
		s-1.5-3.1-1.5-5.2c0-2.5,0.9-4.6,2.6-6.1s4-2.3,6.9-2.3c3.1,0,5.5,0.8,7.1,2.4c1.6,1.6,2.4,3.9,2.4,7h-6.5c0-2.8-1.1-4.2-3.2-4.2
		c-0.9,0-1.6,0.3-2.1,0.8s-0.8,1.2-0.8,2.1s0.3,1.6,0.8,2.2s1.4,1.2,2.7,1.8l4,2c2,1.1,3.4,2.2,4.3,3.6c0.9,1.3,1.3,3,1.3,4.9
		c0,2.7-0.9,4.9-2.6,6.6C92.1,361.8,89.8,362.6,86.8,362.6z"/>
	<path d="M107.8,362.4c-3,0-5.4-1-7.1-2.9c-1.7-1.9-2.6-4.6-2.6-8c0-3.3,0.9-5.9,2.6-7.9c1.8-2,4.1-3,7-3s5.2,0.7,6.8,2.2
		c1.6,1.4,2.4,3.5,2.4,6.2h-6.1c-0.1-2.1-1.1-3.1-3-3.1c-1.1,0-2,0.5-2.6,1.5s-0.9,2.4-0.9,4.1c0,3.7,1.2,5.6,3.6,5.6
		c1.8,0,2.8-1,3-2.9h6.1c-0.1,2.7-1,4.7-2.6,6.1C112.8,361.6,110.6,362.4,107.8,362.4z"/>
	<path d="M127.1,362.4c-2.5,0-4.5-1-5.9-3c-1.5-2-2.2-4.6-2.2-7.9s0.7-5.9,2.2-7.8c1.5-2,3.5-3,5.9-3c2.8,0,4.7,1.2,5.7,3.6v-3h6.3
		v20.5h-6.3v-3C131.7,361.1,129.8,362.4,127.1,362.4z M129.1,357.1c1.2,0,2.2-0.5,2.9-1.4c0.7-1,1-2.3,1-4.1s-0.3-3.1-1-4.1
		s-1.6-1.4-2.9-1.4c-1.3,0-2.2,0.5-2.9,1.4s-1,2.3-1,4.1c0,1.8,0.3,3.2,1,4.1S127.8,357.1,129.1,357.1z"/>
	<path d="M143.2,361.8v-20.5h6.2v2.9c1.1-2.3,3.1-3.5,5.8-3.5c2,0,3.6,0.6,4.7,1.9c1.1,1.3,1.6,3.2,1.6,5.7v13.4h-6.3V350
		c0-1.4-0.2-2.5-0.6-3.1c-0.4-0.7-1.1-1-2.1-1c-2.1,0-3.1,1.6-3.1,4.7v11.1h-6.2L143.2,361.8L143.2,361.8z"/>
	<path d="M173.9,361.8v-30h7.4l5.7,21.4l5.7-21.4h7.4v30h-6v-18.3l-4.9,18.3h-4.4l-4.9-18.3v18.3H173.9z"/>
	<path d="M222.1,350.3c0,1.1-0.1,2-0.2,3h-12.6c0.1,1.4,0.4,2.5,1,3.3s1.5,1.2,2.7,1.2c1.7,0,2.7-0.7,3.1-2.1h5.6
		c-0.3,2.2-1.2,3.8-2.7,5s-3.5,1.8-6,1.8c-3.2,0-5.6-0.9-7.4-2.8c-1.7-1.9-2.6-4.5-2.6-8s0.9-6.1,2.6-8.1c1.7-1.9,4.1-2.9,7.2-2.9
		c2.9,0,5.2,0.9,6.8,2.6C221.3,344.9,222.1,347.4,222.1,350.3z M209.3,349.3h6.8c0-2.9-1.1-4.4-3.3-4.4S209.4,346.3,209.3,349.3z"/>
	<path d="M240.6,360.9c-0.8,0.8-1.9,1.3-3.1,1.3s-2.2-0.4-3.1-1.3c-0.8-0.8-1.3-1.8-1.3-3s0.4-2.2,1.3-3c0.8-0.8,1.9-1.3,3.1-1.3
		s2.2,0.4,3.1,1.3c0.8,0.8,1.3,1.8,1.3,3S241.5,360.1,240.6,360.9z M234.4,351.4v-19.6h6.4v19.6H234.4z"/>
</g>
</svg>
